# xmcd
#
# Track frame offsets:
# 150
# 23032
# 40113
# 64061
# 93059
# 111544
# 126549
# 142063
# 164440
# 185238
# 213698
# 248269
# 264993
#
# Disc length: 3780 seconds
#
#
# Revision: 1
# Processed by: cddbd v1.5.1PL2 Copyright (c) Steve Scherf et al.
# Submitted via: FreeRIP 2.944 
#
DISCID=bf0ec20d
DTITLE=Buddy Guy - Bring 'em In
DYEAR=2005
DGENRE=Blues
TTITLE0=Buddy Guy - Now You're Gone
TTITLE1=Buddy Guy - Ninety Nine And One Half
TTITLE2=Buddy Guy - What Kind Of Woman Is This
TTITLE3=Buddy Guy - Somebody's Sleeping In My Bed
TTITLE4=Buddy Guy feat. Carlos Santana - I Put A Spell On You
TTITLE5=Buddy Guy - On A Saturday Night
TTITLE6=Buddy Guy feat. Tracy Chapman - Ain't No Sunsihine
TTITLE7=Buddy Guy feat. John Mayer - I've Got Dreams To Remember
TTITLE8=Buddy Guy feat. Anthony Hamilton and Robert Randolph - Lay Lady Lay
TTITLE9=Buddy Guy - Cheaper To Keep Her/Blues In The Night
TTITLE10=Buddy Guy - Cut You Loose
TTITLE11=Buddy Guy feat. Keith Richards - The Price You Gotta Pay
TTITLE12=Buddy Guy - Do Your Thing
EXTD=
EXTT0=
EXTT1=
EXTT2=
EXTT3=
EXTT4=
EXTT5=
EXTT6=
EXTT7=
EXTT8=
EXTT9=
EXTT10=
EXTT11=
EXTT12=
PLAYORDER=
